<svg width="20" height="20" viewBox="0 0 20 20" fill="none" xmlns="http://www.w3.org/2000/svg">
<g id="211904_social_github_icon 1">
<g id="Group">
<path id="Vector" fill-rule="evenodd" clip-rule="evenodd" d="M10 1.25C5.16797 1.25 1.25 5.26563 1.25 10.2227C1.25 14.1875 3.75781 17.5469 7.23437 18.7344C7.67187 18.8164 7.83203 18.5391 7.83203 18.3008C7.83203 18.0859 7.82422 17.5234 7.82031 16.7734C5.38672 17.3164 4.87109 15.5703 4.87109 15.5703C4.47266 14.5352 3.89844 14.2578 3.89844 14.2578C3.10547 13.6992 3.95703 13.7109 3.95703 13.7109C4.83594 13.7734 5.29688 14.6367 5.29688 14.6367C6.07813 16.0078 7.34375 15.6133 7.84375 15.3828C7.92188 14.8047 8.14844 14.4063 8.39844 14.1836C6.45703 13.957 4.41406 13.1875 4.41406 9.75C4.41406 8.76953 4.75391 7.96875 5.3125 7.34375C5.22266 7.11719 4.92187 6.20312 5.39844 4.96875C5.39844 4.96875 6.13281 4.72656 7.80469 5.88672C8.50391 5.6875 9.25 5.58984 9.99609 5.58594C10.7383 5.58984 11.4883 5.6875 12.1875 5.88672C13.8594 4.72656 14.5898 4.96875 14.5898 4.96875C15.0664 6.20312 14.7656 7.11719 14.6758 7.34375C15.2344 7.97266 15.5742 8.77344 15.5742 9.75C15.5742 13.1953 13.5273 13.9531 11.5781 14.1758C11.8906 14.4531 12.1719 15 12.1719 15.8359C12.1719 17.0352 12.1602 18.0039 12.1602 18.2969C12.1602 18.5352 12.3164 18.8164 12.7617 18.7266C16.2461 17.543 18.75 14.1836 18.75 10.2227C18.75 5.26563 14.832 1.25 10 1.25Z" fill="black"/>
</g>
</g>
</svg>
