<svg width="28" height="21" viewBox="0 0 28 21" fill="none" xmlns="http://www.w3.org/2000/svg">
<g id="Group">
<path id="Vector" d="M25.776 3.5H21.2771C18.9365 0.875 18.2 0 17.3031 0H10.85C9.95312 0 9.23125 0.875 6.87604 3.5H5.90625V2.33333H3.42708V3.5H2.44271C1.15937 3.5 0 4.4625 0 5.73854V18.5719C0 19.8479 1.15937 21 2.44271 21H25.776C27.0594 21 28 19.8479 28 18.5719V5.73854C28 4.4625 27.0594 3.5 25.776 3.5ZM14 18.1198C10.5656 18.1198 7.76562 15.3198 7.76562 11.8854C7.76562 8.45104 10.5656 5.65104 14 5.65104C17.4344 5.65104 20.2344 8.45104 20.2344 11.8854C20.2344 15.3198 17.4344 18.1198 14 18.1198ZM22.2396 7.07292H21V5.83333H22.2396V7.07292Z" fill="#AAAAAA"/>
<path id="Vector_2" d="M14.0001 6.81775C11.2001 6.81775 8.93237 9.08546 8.93237 11.8855C8.93237 14.6855 11.2001 16.9532 14.0001 16.9532C16.8001 16.9532 19.0678 14.6855 19.0678 11.8855C19.0678 9.08546 16.8001 6.81775 14.0001 6.81775ZM14.0001 14.2188C12.7095 14.2188 11.6667 13.1761 11.6667 11.8855C11.6667 10.5948 12.7095 9.55212 14.0001 9.55212C15.2907 9.55212 16.3334 10.5948 16.3334 11.8855C16.3334 13.1761 15.2907 14.2188 14.0001 14.2188Z" fill="#AAAAAA"/>
</g>
</svg>
